<svg xmlns="http://www.w3.org/2000/svg" viewBox="0 0 179 42" role="img" aria-label="Deluxe">
    <g id="Group_1" data-name="Group 1" fill="#ffffff">
      <path id="Path_1" data-name="Path 1"
        d="M31.19,16.8v3.724h5.83l.03,12.8a10.271,10.271,0,0,0-8.64-4.365,9.205,9.205,0,0,0-7.83,4.1,17.267,17.267,0,0,0-2.96,10.352,19.842,19.842,0,0,0,2.83,11.033A8.772,8.772,0,0,0,28.16,58.8a10.369,10.369,0,0,0,5.14-1.362,10.147,10.147,0,0,0,3.75-3.464v4.095H41.3L41.26,16.8Zm5.87,32.559a6.816,6.816,0,0,1-1.44,2.133,10.588,10.588,0,0,1-3.08,2.623,6.848,6.848,0,0,1-3.24.871,5.9,5.9,0,0,1-5.27-3.2,15.588,15.588,0,0,1-1.92-8.12,14.174,14.174,0,0,1,2.04-7.9,6.334,6.334,0,0,1,5.56-3.124q4.305,0,7.36,4.916v11.8Z"
        transform="translate(-17.62 -16.8)" />
      <path id="Path_2" data-name="Path 2"
        d="M61.29,28.93a11.325,11.325,0,0,0-8.98,4.02q-3.48,4.02-3.47,10.78,0,6.9,3.87,10.95A13.422,13.422,0,0,0,62.9,58.74a21.145,21.145,0,0,0,8.77-1.69l-.74-3.41a24.754,24.754,0,0,1-7.98,1.39A8.809,8.809,0,0,1,56.1,51.9a11.521,11.521,0,0,1-2.79-7.96H72.79V42.61q0-6.21-3.3-9.95a10.509,10.509,0,0,0-8.2-3.73M53.58,40.49a8.664,8.664,0,0,1,2.41-5.7,7.377,7.377,0,0,1,5.46-2.18,6.149,6.149,0,0,1,4.63,2.28,8.015,8.015,0,0,1,2.07,5.6H53.58Z"
        transform="translate(-17.651 -16.75)" />
      <path id="Path_3" data-name="Path 3" d="M87.47,16.8H75.8v3.684h7.42V58.06h11.6V54.376H87.47Z"
        transform="translate(-17.677 -16.8)" />
      <path id="Path_4" data-name="Path 4"
        d="M119.95,41.97v8.16q-4.47,4.845-8.37,4.85a4.231,4.231,0,0,1-3.87-1.78,10.205,10.205,0,0,1-1.14-5.41V29.61h-4.25v19.4q0,9.675,7.98,9.67,5.07,0,9.65-4.88V58h4.25V29.6h-4.25Z"
        transform="translate(-17.704 -16.75)" />
      <path id="Path_5" data-name="Path 5"
        d="M190.48,42.61q0-6.21-3.3-9.95a10.491,10.491,0,0,0-8.2-3.73A11.325,11.325,0,0,0,170,32.95q-3.48,4.02-3.47,10.78,0,6.9,3.87,10.95a13.422,13.422,0,0,0,10.19,4.06,21.145,21.145,0,0,0,8.77-1.69l-.74-3.41a24.8,24.8,0,0,1-7.98,1.39,8.809,8.809,0,0,1-6.85-3.13A11.521,11.521,0,0,1,171,43.94h19.48Zm-19.21-2.12a8.664,8.664,0,0,1,2.41-5.7,7.393,7.393,0,0,1,5.46-2.18,6.149,6.149,0,0,1,4.63,2.28,8.015,8.015,0,0,1,2.07,5.6H171.27Z"
        transform="translate(-17.77 -16.75)" />
    </g>
    <g fill="#e60c23">
      <path id="Path_6" data-name="Path 6"
        d="M132.09,29.61l10.12,14.21L132.09,58.03h4.71l10.05-14.21L136.8,29.61Z"
        transform="translate(-17.729 -16.75)" />
      <path id="Path_7" data-name="Path 7"
        d="M161.6,29.61,151.48,43.82,161.6,58.03h-4.7L146.85,43.82,156.9,29.61Z"
        transform="translate(-17.743 -16.75)" />
    </g>
    <g id="Group_2" data-name="Group 2" transform="translate(173.76 36.17)" fill="#ffffff">
      <path id="Path_8" data-name="Path 8"
        d="M191.53,55.54a2.62,2.62,0,1,1,2.62,2.62A2.623,2.623,0,0,1,191.53,55.54Zm4.94,0a2.31,2.31,0,1,0-2.31,2.31A2.3,2.3,0,0,0,196.47,55.54Zm-1.69.76c-.03-.37-.04-.62-.52-.62h-.68v1.24h-.38V54.07l1.16-.01a.768.768,0,0,1,.85.79.737.737,0,0,1-.39.66c.24.11.3.35.32.68a1.514,1.514,0,0,0,.14.74h-.43A2.519,2.519,0,0,1,194.78,56.3Zm-.46-.97a.471.471,0,0,0,.53-.45c0-.32-.2-.46-.53-.46h-.74v.91Z"
        transform="translate(-191.53 -52.92)" />
    </g>
  </svg>
